<svg xmlns="http://www.w3.org/2000/svg" width="38" height="38" viewBox="0 0 38 38">
    <g fill="#CDCDCD" fill-rule="evenodd">
        <path fill-rule="nonzero" d="M27.153 21.912l3.333.893-.517 1.932-3.334-.893-1.487 5.55-1.932-.518 2.77-10.336 1.932.518-.765 2.854zM5 22h16V3H5v19zM4 1h18a1 1 0 0 1 1 1v21a1 1 0 0 1-1 1H4a1 1 0 0 1-1-1V2a1 1 0 0 1 1-1z"/>
        <path fill-rule="nonzero" d="M17.068 10.077c-.574 2.27-2.123 4.552-4.647 6.846l-.998-1.802c1.86-1.757 3.03-3.438 3.562-5.044h2.083zm0 0c.136-.6.253-1.402.253-2h-9.8l1.108 2h8.439zm0 0c-.574 2.27-2.123 4.552-4.647 6.846l-.998-1.802c1.86-1.757 3.03-3.438 3.562-5.044h2.083zm.05-.204c.135-.6.203-1.198.203-1.796h-9.8l1.108 2h6.356l2.132-.204z"/>
        <path d="M22.51 10.895l14.325 3.92c.731.355 1.024.793.88 1.314-.144.522-1.946 7.191-5.407 20.008-.118.49-.276.798-.476.921-.299.185-.592.231-.916.15-.216-.054-5.797-1.552-16.743-4.494-.35-.071-.597-.21-.742-.414-.218-.307-.242-.497-.121-1.013.08-.344.87-3.272 2.37-8.784h2.039l-2.278 8.461 15.077 4.063 4.984-18.529-12.992-3.504v-2.099z"/>
    </g>
</svg>
